<svg xmlns="http://www.w3.org/2000/svg" id="canvas" viewBox="375.891 553.119 1716.481 191.361"><path d="M 401.88,557.21 C 401.03 558.67, 401.23 560.19, 401.05 564.56 C 400.86 568.92, 401.14 571.76, 400.96 579.05 C 400.78 586.34, 400.70 591.29, 400.16 601.00 C 399.61 610.72, 399.17 616.62, 398.23 627.63 C 397.30 638.64, 396.67 644.89, 395.48 656.04 C 394.29 667.19, 393.54 673.13, 392.29 683.37 C 391.04 693.60, 390.31 698.79, 389.22 707.21 C 388.12 715.62, 387.59 719.69, 386.83 725.46 C 386.06 731.23, 385.51 733.00, 385.39 736.05 C 385.28 739.10, 385.71 739.74, 386.25 740.71 C 386.78 741.68, 387.37 741.73, 388.08 740.88 C 388.79 740.04, 389.29 739.50, 389.79 736.49 C 390.28 733.49, 390.08 731.64, 390.54 725.85 C 391.01 720.06, 391.26 715.98, 392.11 707.54 C 392.96 699.10, 393.65 693.91, 394.81 683.67 C 395.98 673.42, 396.72 667.47, 397.93 656.31 C 399.15 645.15, 399.80 638.89, 400.89 627.87 C 401.97 616.86, 402.53 610.95, 403.36 601.23 C 404.19 591.50, 404.50 586.55, 405.03 579.25 C 405.56 571.94, 405.94 569.09, 406.00 564.69 C 406.06 560.29, 406.15 558.74, 405.32 557.24 C 404.50 555.75, 402.74 555.75, 401.88 557.21" style="stroke: black; fill: black;"/><path d="M 441.33,584.01 C 440.64 585.31, 440.87 586.24, 441.12 589.99 C 441.36 593.74, 442.04 596.27, 442.56 602.77 C 443.07 609.26, 443.35 613.70, 443.69 622.46 C 444.03 631.22, 444.17 636.77, 444.27 646.56 C 444.37 656.34, 444.28 661.90, 444.19 671.37 C 444.10 680.84, 444.03 685.75, 443.81 693.92 C 443.59 702.08, 443.40 706.11, 443.09 712.20 C 442.78 718.29, 442.36 720.67, 442.25 724.36 C 442.14 728.06, 442.02 729.37, 442.55 730.68 C 443.07 731.99, 444.08 732.13, 444.87 730.93 C 445.67 729.72, 446.12 728.37, 446.52 724.65 C 446.92 720.93, 446.78 718.46, 446.86 712.32 C 446.94 706.18, 446.87 702.15, 446.92 693.97 C 446.97 685.78, 447.01 680.88, 447.09 671.40 C 447.17 661.91, 447.27 656.35, 447.32 646.55 C 447.36 636.74, 447.34 631.18, 447.31 622.38 C 447.28 613.58, 447.27 609.14, 447.16 602.55 C 447.05 595.95, 447.28 593.24, 446.76 589.42 C 446.24 585.60, 445.66 584.55, 444.57 583.47 C 443.48 582.38, 442.02 582.70, 441.33 584.01" style="stroke: black; fill: black;"/><path d="M 379.60,675.31 C 380.55 676.38, 381.39 677.20, 384.27 677.36 C 387.15 677.53, 389.10 676.72, 394.00 676.13 C 398.90 675.54, 402.19 675.22, 408.78 674.42 C 415.37 673.62, 419.49 673.18, 426.93 672.13 C 434.37 671.07, 438.53 670.48, 445.97 669.15 C 453.40 667.82, 457.25 667.08, 464.10 665.48 C 470.96 663.87, 474.37 662.96, 480.25 661.12 C 486.14 659.27, 488.90 658.29, 493.52 656.24 C 498.15 654.20, 500.43 653.32, 503.38 650.88 C 506.33 648.44, 507.60 646.82, 508.28 644.04 C 508.95 641.25, 508.48 639.21, 506.76 636.96 C 505.04 634.70, 503.10 633.08, 499.68 632.77 C 496.27 632.46, 493.77 633.44, 489.67 635.42 C 485.57 637.40, 483.17 639.03, 479.20 642.68 C 475.23 646.33, 473.00 648.79, 469.82 653.67 C 466.64 658.56, 465.02 661.60, 463.29 667.10 C 461.57 672.60, 461.00 675.79, 461.19 681.18 C 461.39 686.57, 461.94 689.59, 464.27 694.06 C 466.60 698.54, 468.57 700.77, 472.85 703.57 C 477.13 706.36, 480.05 707.41, 485.68 708.05 C 491.30 708.68, 494.61 708.41, 500.97 706.76 C 507.32 705.11, 510.81 703.63, 517.45 699.78 C 524.09 695.94, 527.62 693.43, 534.16 687.54 C 540.71 681.65, 544.08 677.97, 550.18 670.33 C 556.29 662.69, 559.36 658.09, 564.70 649.34 C 570.03 640.60, 572.66 635.51, 576.85 626.60 C 581.05 617.69, 582.93 612.77, 585.67 604.79 C 588.41 596.80, 589.44 592.86, 590.54 586.66 C 591.64 580.47, 592.20 577.74, 591.16 573.81 C 590.13 569.87, 588.48 567.84, 585.36 566.99 C 582.24 566.14, 579.67 566.80, 575.57 569.56 C 571.48 572.33, 569.24 574.87, 564.88 580.80 C 560.52 586.74, 557.93 590.91, 553.76 599.24 C 549.60 607.56, 547.24 612.94, 544.07 622.45 C 540.90 631.96, 539.38 637.56, 537.91 646.78 C 536.44 655.99, 536.13 660.86, 536.72 668.52 C 537.31 676.18, 538.14 679.75, 540.85 685.06 C 543.56 690.38, 545.70 692.58, 550.27 695.08 C 554.84 697.58, 558.00 698.05, 563.71 697.57 C 569.41 697.09, 572.66 695.94, 578.80 692.67 C 584.93 689.40, 588.21 686.91, 594.38 681.20 C 600.54 675.50, 603.83 671.73, 609.62 664.17 C 615.41 656.60, 618.37 651.93, 623.33 643.38 C 628.30 634.83, 630.69 629.83, 634.45 621.41 C 638.21 612.99, 639.85 608.47, 642.12 601.29 C 644.38 594.11, 645.22 590.83, 645.76 585.51 C 646.29 580.18, 646.52 577.71, 644.81 574.68 C 643.10 571.65, 640.65 570.19, 637.19 570.36 C 633.73 570.52, 631.51 571.96, 627.53 575.51 C 623.54 579.06, 621.31 581.78, 617.25 588.10 C 613.18 594.43, 610.79 598.80, 607.21 607.12 C 603.64 615.44, 601.70 620.71, 599.36 629.72 C 597.03 638.74, 596.02 643.89, 595.53 652.21 C 595.04 660.53, 595.28 664.76, 596.93 671.33 C 598.59 677.91, 600.08 680.87, 603.83 685.09 C 607.57 689.31, 610.26 690.80, 615.66 692.44 C 621.05 694.07, 624.42 694.06, 630.79 693.26 C 637.16 692.47, 640.86 691.24, 647.53 688.48 C 654.19 685.72, 657.90 683.54, 664.14 679.47 C 670.37 675.39, 673.64 672.66, 678.69 668.11 C 683.74 663.56, 686.15 660.93, 689.41 656.71 C 692.66 652.48, 694.37 650.45, 694.98 646.97 C 695.59 643.50, 694.60 641.33, 692.44 639.33 C 690.28 637.32, 687.83 636.44, 684.18 636.94 C 680.53 637.44, 678.12 639.04, 674.20 641.82 C 670.28 644.60, 667.97 646.79, 664.56 650.85 C 661.16 654.91, 659.30 657.55, 657.16 662.12 C 655.03 666.70, 654.05 669.37, 653.89 673.72 C 653.73 678.08, 654.20 680.65, 656.35 683.88 C 658.50 687.11, 660.71 688.56, 664.63 689.89 C 668.54 691.22, 671.26 691.16, 675.92 690.52 C 680.57 689.88, 683.29 688.92, 687.91 686.69 C 692.53 684.46, 695.07 682.79, 699.00 679.38 C 702.94 675.97, 704.99 673.78, 707.60 669.64 C 710.20 665.51, 711.26 663.03, 712.04 658.73 C 712.81 654.43, 712.72 651.92, 711.47 648.16 C 710.21 644.40, 708.68 642.41, 705.78 639.94 C 702.87 637.46, 700.42 636.33, 696.93 635.79 C 693.44 635.26, 690.05 636.08, 688.32 637.27 C 686.59 638.45, 686.88 640.50, 688.28 641.71 C 689.67 642.93, 692.70 642.55, 695.29 643.34 C 697.89 644.13, 699.25 644.24, 701.24 645.65 C 703.22 647.06, 704.25 647.98, 705.21 650.40 C 706.18 652.81, 706.53 654.48, 706.04 657.73 C 705.55 660.97, 704.90 663.16, 702.77 666.64 C 700.63 670.12, 698.83 672.19, 695.36 675.14 C 691.89 678.09, 689.48 679.55, 685.43 681.39 C 681.38 683.22, 678.86 683.84, 675.10 684.31 C 671.34 684.77, 669.31 684.51, 666.61 683.72 C 663.91 682.93, 662.95 682.28, 661.62 680.34 C 660.28 678.39, 659.77 677.13, 659.94 673.99 C 660.10 670.85, 660.61 668.46, 662.46 664.64 C 664.31 660.82, 666.07 658.31, 669.19 654.89 C 672.32 651.46, 674.74 649.68, 678.08 647.50 C 681.42 645.33, 683.58 644.95, 685.88 644.01 C 688.19 643.07, 688.91 642.49, 689.61 642.81 C 690.30 643.12, 690.16 643.36, 689.35 645.58 C 688.55 647.80, 688.27 650.01, 685.59 653.93 C 682.91 657.84, 680.67 660.68, 675.96 665.15 C 671.24 669.62, 668.02 672.33, 662.04 676.27 C 656.05 680.20, 652.38 682.25, 646.03 684.83 C 639.68 687.41, 636.12 688.44, 630.28 689.17 C 624.44 689.90, 621.53 689.81, 616.81 688.48 C 612.09 687.15, 609.98 686.12, 606.68 682.52 C 603.37 678.92, 601.87 676.50, 600.27 670.47 C 598.68 664.44, 598.27 660.37, 598.69 652.38 C 599.11 644.39, 600.06 639.29, 602.39 630.52 C 604.72 621.75, 606.69 616.53, 610.36 608.52 C 614.03 600.50, 616.62 596.28, 620.74 590.45 C 624.85 584.63, 627.51 582.34, 630.93 579.40 C 634.35 576.46, 635.98 576.24, 637.85 575.75 C 639.73 575.26, 639.54 575.06, 640.30 576.94 C 641.05 578.83, 641.91 580.49, 641.63 585.17 C 641.36 589.85, 640.91 593.33, 638.94 600.34 C 636.97 607.36, 635.39 611.91, 631.78 620.23 C 628.16 628.56, 625.78 633.54, 620.88 641.95 C 615.97 650.37, 613.00 654.98, 607.24 662.32 C 601.49 669.67, 598.15 673.31, 592.10 678.69 C 586.05 684.07, 582.74 686.28, 576.99 689.22 C 571.24 692.15, 568.30 692.91, 563.34 693.37 C 558.38 693.82, 556.05 693.47, 552.19 691.48 C 548.34 689.49, 546.53 688.04, 544.07 683.39 C 541.61 678.75, 540.54 675.49, 539.88 668.25 C 539.23 661.02, 539.40 656.20, 540.80 647.23 C 542.20 638.26, 543.69 632.69, 546.88 623.40 C 550.08 614.11, 552.50 608.80, 556.77 600.79 C 561.04 592.78, 563.88 588.78, 568.22 583.36 C 572.56 577.95, 575.26 576.09, 578.49 573.71 C 581.71 571.34, 582.72 571.26, 584.35 571.48 C 585.98 571.70, 586.13 571.90, 586.64 574.83 C 587.15 577.75, 587.66 580.29, 586.89 586.10 C 586.12 591.90, 585.29 595.97, 582.79 603.84 C 580.29 611.70, 578.45 616.62, 574.37 625.44 C 570.29 634.26, 567.67 639.32, 562.39 647.94 C 557.12 656.56, 554.03 661.10, 547.97 668.54 C 541.91 675.99, 538.53 679.56, 532.07 685.18 C 525.62 690.80, 522.10 693.13, 515.68 696.63 C 509.26 700.14, 505.86 701.36, 499.97 702.71 C 494.09 704.07, 491.13 704.07, 486.25 703.41 C 481.37 702.75, 479.08 701.75, 475.57 699.42 C 472.06 697.10, 470.59 695.45, 468.70 691.77 C 466.80 688.09, 466.23 685.65, 466.08 681.01 C 465.93 676.38, 466.34 673.48, 467.94 668.59 C 469.54 663.70, 471.06 660.84, 474.09 656.56 C 477.11 652.27, 479.35 650.06, 483.04 647.16 C 486.72 644.26, 489.20 643.26, 492.52 642.06 C 495.84 640.86, 497.55 641.43, 499.63 641.16 C 501.70 640.89, 502.23 640.51, 502.89 640.71 C 503.54 640.91, 503.59 641.05, 502.90 642.15 C 502.22 643.25, 501.76 644.25, 499.46 646.20 C 497.16 648.16, 495.51 649.71, 491.41 651.93 C 487.32 654.14, 484.61 655.28, 478.97 657.27 C 473.34 659.27, 469.97 660.23, 463.24 661.89 C 456.52 663.54, 452.70 664.29, 445.34 665.56 C 437.98 666.82, 433.83 667.38, 426.44 668.20 C 419.04 669.02, 414.92 669.29, 408.36 669.65 C 401.79 670.01, 398.49 669.97, 393.61 670.00 C 388.73 670.03, 386.76 669.39, 383.95 669.80 C 381.13 670.20, 380.41 670.91, 379.54 672.02 C 378.67 673.12, 378.66 674.24, 379.60 675.31" style="stroke: black; fill: black;"/><path d="M 759.59,695.44 C 758.07 696.61, 757.47 698.78, 755.47 702.71 C 753.46 706.65, 751.74 710.37, 749.56 715.12 C 747.38 719.87, 744.67 723.76, 744.55 726.46 C 744.42 729.16, 746.86 730.37, 748.93 728.62 C 750.99 726.87, 752.50 722.39, 754.88 717.70 C 757.27 713.00, 759.23 709.30, 760.86 705.13 C 762.49 700.96, 763.30 698.78, 763.05 696.84 C 762.79 694.90, 761.10 694.26, 759.59 695.44" style="stroke: black; fill: black;"/><path d="M 908.54,568.38 C 907.81 570.53, 908.68 573.23, 908.57 579.08 C 908.45 584.93, 908.42 589.03, 907.98 597.64 C 907.54 606.25, 907.20 612.21, 906.37 622.13 C 905.53 632.05, 904.88 637.72, 903.78 647.21 C 902.68 656.71, 901.95 661.59, 900.88 669.61 C 899.80 677.63, 899.29 681.68, 898.39 687.31 C 897.49 692.94, 896.60 694.69, 896.37 697.76 C 896.14 700.83, 896.84 701.51, 897.25 702.67 C 897.65 703.84, 898.01 703.40, 898.38 703.59 C 898.74 703.77, 898.69 703.73, 899.05 703.60 C 899.42 703.46, 899.62 703.96, 900.21 702.91 C 900.79 701.86, 901.54 701.38, 901.96 698.35 C 902.38 695.32, 901.88 693.43, 902.29 687.76 C 902.70 682.09, 903.13 678.04, 904.01 669.99 C 904.88 661.95, 905.59 657.06, 906.68 647.55 C 907.78 638.03, 908.51 632.35, 909.48 622.41 C 910.44 612.47, 910.90 606.50, 911.50 597.85 C 912.11 589.20, 912.35 585.07, 912.49 579.16 C 912.63 573.26, 912.98 570.48, 912.19 568.33 C 911.40 566.17, 909.26 566.23, 908.54 568.38" style="stroke: black; fill: black;"/><path d="M 975.56,571.20 C 974.23 572.22, 973.42 573.63, 972.59 576.67 C 971.77 579.71, 971.52 582.66, 971.45 586.40 C 971.38 590.15, 971.11 593.49, 972.25 595.39 C 973.39 597.30, 975.64 597.52, 977.15 595.91 C 978.67 594.30, 979.06 591.00, 979.82 587.34 C 980.59 583.69, 981.09 580.77, 980.97 577.62 C 980.85 574.47, 980.31 572.88, 979.23 571.60 C 978.15 570.31, 976.89 570.19, 975.56 571.20" style="stroke: black; fill: black;"/><path d="M 1019.44,648.60 C 1018.35 649.83, 1018.01 651.49, 1017.80 654.44 C 1017.58 657.39, 1018.24 659.44, 1018.38 663.36 C 1018.52 667.29, 1018.56 670.08, 1018.49 674.04 C 1018.42 678.01, 1017.60 680.14, 1018.04 683.19 C 1018.48 686.24, 1019.15 687.65, 1020.70 689.28 C 1022.25 690.91, 1023.56 691.58, 1025.80 691.32 C 1028.03 691.07, 1029.62 690.41, 1031.88 688.00 C 1034.14 685.58, 1034.67 683.06, 1037.11 679.25 C 1039.55 675.44, 1041.09 672.77, 1044.08 668.95 C 1047.08 665.13, 1049.08 662.88, 1052.10 660.16 C 1055.11 657.44, 1056.97 656.54, 1059.16 655.35 C 1061.35 654.15, 1061.94 653.85, 1063.04 654.17 C 1064.14 654.50, 1064.16 655.24, 1064.65 656.98 C 1065.15 658.71, 1065.19 660.19, 1065.50 662.86 C 1065.81 665.53, 1065.57 667.49, 1066.21 670.32 C 1066.85 673.15, 1067.26 674.85, 1068.70 677.01 C 1070.15 679.17, 1071.20 680.22, 1073.45 681.13 C 1075.70 682.03, 1077.29 682.46, 1079.96 681.55 C 1082.64 680.63, 1083.84 679.09, 1086.83 676.53 C 1089.83 673.97, 1091.42 671.81, 1094.93 668.76 C 1098.45 665.71, 1100.68 663.74, 1104.41 661.29 C 1108.15 658.84, 1110.43 657.62, 1113.60 656.49 C 1116.78 655.37, 1118.17 655.36, 1120.30 655.66 C 1122.43 655.97, 1122.85 656.44, 1124.26 658.02 C 1125.67 659.61, 1126.24 660.91, 1127.36 663.60 C 1128.49 666.29, 1128.94 668.25, 1129.88 671.47 C 1130.82 674.69, 1131.10 676.74, 1132.08 679.71 C 1133.05 682.69, 1133.55 684.34, 1134.77 686.34 C 1135.98 688.34, 1136.94 688.87, 1138.14 689.71 C 1139.35 690.55, 1139.95 690.66, 1140.79 690.56 C 1141.63 690.47, 1142.00 689.90, 1142.34 689.22 C 1142.67 688.54, 1142.45 688.35, 1142.47 687.17 C 1142.48 685.98, 1142.80 685.34, 1142.40 683.30 C 1142.01 681.26, 1141.43 679.82, 1140.48 676.95 C 1139.54 674.08, 1138.88 672.28, 1137.69 668.94 C 1136.50 665.59, 1136.20 663.51, 1134.54 660.25 C 1132.88 656.98, 1132.05 654.89, 1129.37 652.61 C 1126.70 650.34, 1124.75 649.29, 1121.17 648.86 C 1117.59 648.43, 1115.49 649.04, 1111.47 650.47 C 1107.44 651.91, 1105.21 653.43, 1101.05 656.02 C 1096.89 658.60, 1094.54 660.55, 1090.66 663.39 C 1086.78 666.23, 1084.58 667.94, 1081.67 670.20 C 1078.75 672.47, 1077.39 673.39, 1076.10 674.71 C 1074.81 676.04, 1075.20 676.84, 1075.22 676.83 C 1075.23 676.81, 1075.92 676.29, 1076.17 674.66 C 1076.42 673.02, 1076.74 671.47, 1076.47 668.67 C 1076.21 665.87, 1075.91 663.80, 1074.85 660.67 C 1073.80 657.53, 1073.27 655.42, 1071.21 652.98 C 1069.15 650.54, 1067.57 649.23, 1064.57 648.46 C 1061.57 647.69, 1059.56 647.71, 1056.22 649.12 C 1052.88 650.54, 1051.27 652.38, 1047.86 655.53 C 1044.46 658.69, 1042.55 661.04, 1039.19 664.90 C 1035.83 668.77, 1033.93 671.33, 1031.05 674.86 C 1028.17 678.40, 1026.29 680.06, 1024.78 682.58 C 1023.28 685.10, 1023.46 686.44, 1023.52 687.47 C 1023.58 688.50, 1024.44 688.63, 1025.09 687.72 C 1025.75 686.81, 1026.52 685.67, 1026.79 682.92 C 1027.05 680.18, 1026.53 677.96, 1026.42 674.00 C 1026.31 670.04, 1026.35 667.14, 1026.25 663.12 C 1026.14 659.10, 1026.49 656.88, 1025.89 653.91 C 1025.28 650.94, 1024.53 649.33, 1023.24 648.27 C 1021.95 647.21, 1020.53 647.37, 1019.44 648.60" style="stroke: black; fill: black;"/><path d="M 1294.01,574.17 C 1293.29 575.52, 1293.59 576.62, 1293.77 580.42 C 1293.94 584.22, 1294.58 586.74, 1294.88 593.18 C 1295.18 599.62, 1295.42 604.11, 1295.27 612.60 C 1295.11 621.09, 1294.74 626.37, 1294.11 635.62 C 1293.47 644.86, 1292.92 650.13, 1292.10 658.82 C 1291.28 667.51, 1290.74 671.95, 1290.00 679.05 C 1289.26 686.16, 1288.77 689.59, 1288.40 694.34 C 1288.03 699.10, 1287.71 700.56, 1288.17 702.82 C 1288.63 705.07, 1289.84 705.22, 1290.70 705.63 C 1291.55 706.03, 1292.28 705.15, 1292.45 704.83 C 1292.61 704.50, 1291.66 704.02, 1291.54 704.01 C 1291.42 704.00, 1291.51 705.09, 1291.87 704.79 C 1292.22 704.49, 1293.10 704.58, 1293.32 702.53 C 1293.53 700.48, 1292.92 699.18, 1292.96 694.54 C 1293.00 689.90, 1293.06 686.44, 1293.51 679.35 C 1293.96 672.26, 1294.46 667.80, 1295.22 659.10 C 1295.98 650.41, 1296.55 645.13, 1297.30 635.86 C 1298.06 626.58, 1298.55 621.28, 1299.00 612.73 C 1299.44 604.18, 1299.46 599.65, 1299.54 593.10 C 1299.61 586.55, 1299.82 583.86, 1299.38 579.97 C 1298.95 576.09, 1298.42 574.85, 1297.34 573.69 C 1296.27 572.53, 1294.72 572.82, 1294.01 574.17" style="stroke: black; fill: black;"/><path d="M 1328.78,596.89 C 1328.00 598.48, 1328.37 600.26, 1328.47 604.60 C 1328.56 608.93, 1329.01 612.02, 1329.25 618.57 C 1329.50 625.11, 1329.65 629.61, 1329.70 637.34 C 1329.75 645.08, 1329.73 649.62, 1329.51 657.25 C 1329.29 664.87, 1329.01 669.05, 1328.58 675.48 C 1328.16 681.91, 1327.73 684.99, 1327.39 689.38 C 1327.04 693.77, 1326.76 695.11, 1326.85 697.42 C 1326.93 699.74, 1327.25 700.20, 1327.81 700.96 C 1328.37 701.73, 1328.88 701.85, 1329.64 701.24 C 1330.41 700.62, 1331.09 700.21, 1331.64 697.90 C 1332.18 695.59, 1332.17 694.13, 1332.36 689.69 C 1332.55 685.24, 1332.42 682.13, 1332.60 675.67 C 1332.77 669.20, 1333.02 665.02, 1333.24 657.36 C 1333.47 649.70, 1333.60 645.14, 1333.73 637.36 C 1333.87 629.59, 1333.91 625.08, 1333.91 618.48 C 1333.91 611.88, 1334.04 608.72, 1333.73 604.35 C 1333.41 599.98, 1333.33 598.13, 1332.34 596.64 C 1331.35 595.15, 1329.55 595.30, 1328.78 596.89" style="stroke: black; fill: black;"/><path d="M 1276.35,665.02 C 1277.43 665.97, 1278.38 666.44, 1281.41 666.47 C 1284.45 666.51, 1286.45 665.88, 1291.53 665.18 C 1296.62 664.49, 1303.93 664.69, 1306.85 663.02 C 1309.78 661.34, 1309.40 657.80, 1306.17 656.80 C 1302.93 655.81, 1295.81 657.53, 1290.70 658.03 C 1285.58 658.54, 1283.50 658.59, 1280.57 659.32 C 1277.64 660.06, 1276.87 660.58, 1276.03 661.72 C 1275.18 662.86, 1275.27 664.07, 1276.35 665.02" style="stroke: black; fill: black;"/><path d="M 1414.81,650.87 C 1413.82 649.74, 1412.60 648.81, 1409.87 648.79 C 1407.15 648.77, 1405.26 649.28, 1401.19 650.76 C 1397.12 652.24, 1394.32 653.35, 1389.53 656.19 C 1384.74 659.02, 1381.90 661.12, 1377.23 664.95 C 1372.57 668.78, 1369.94 671.24, 1366.20 675.32 C 1362.46 679.40, 1360.42 681.54, 1358.55 685.35 C 1356.68 689.17, 1356.09 691.43, 1356.86 694.41 C 1357.64 697.39, 1359.38 699.27, 1362.42 700.27 C 1365.46 701.26, 1367.79 700.72, 1372.04 699.39 C 1376.29 698.06, 1378.79 696.50, 1383.69 693.61 C 1388.59 690.72, 1391.53 688.56, 1396.54 684.93 C 1401.55 681.30, 1404.35 678.86, 1408.74 675.46 C 1413.14 672.06, 1415.63 670.31, 1418.52 667.94 C 1421.41 665.56, 1422.44 664.52, 1423.21 663.59 C 1423.97 662.66, 1423.06 662.31, 1422.33 663.29 C 1421.60 664.27, 1420.30 665.61, 1419.57 668.48 C 1418.84 671.35, 1418.67 673.81, 1418.67 677.65 C 1418.67 681.49, 1418.58 683.97, 1419.57 687.67 C 1420.56 691.37, 1421.19 693.58, 1423.63 696.15 C 1426.07 698.72, 1428.09 699.90, 1431.77 700.51 C 1435.45 701.12, 1437.66 700.53, 1442.02 699.18 C 1446.39 697.83, 1448.80 696.52, 1453.59 693.77 C 1458.38 691.03, 1461.11 689.07, 1465.97 685.45 C 1470.84 681.82, 1473.51 679.42, 1477.93 675.65 C 1482.34 671.89, 1485.13 669.73, 1488.05 666.63 C 1490.97 663.53, 1492.23 661.89, 1492.52 660.15 C 1492.81 658.41, 1491.23 657.36, 1489.50 657.94 C 1487.77 658.52, 1486.02 659.93, 1483.86 663.04 C 1481.70 666.14, 1480.31 669.08, 1478.70 673.47 C 1477.10 677.86, 1476.15 680.74, 1475.83 684.99 C 1475.51 689.25, 1475.46 691.67, 1477.09 694.75 C 1478.72 697.84, 1480.67 699.37, 1483.97 700.41 C 1487.26 701.45, 1489.68 701.15, 1493.57 699.93 C 1497.46 698.72, 1499.68 697.24, 1503.40 694.34 C 1507.12 691.44, 1509.17 689.37, 1512.17 685.43 C 1515.17 681.49, 1516.63 679.01, 1518.39 674.66 C 1520.14 670.31, 1520.80 667.81, 1520.94 663.69 C 1521.08 659.57, 1520.71 657.25, 1519.10 654.06 C 1517.49 650.87, 1515.61 649.34, 1512.90 647.74 C 1510.19 646.13, 1508.00 645.95, 1505.54 646.05 C 1503.08 646.15, 1501.54 647.11, 1500.60 648.26 C 1499.65 649.40, 1499.99 650.73, 1500.81 651.77 C 1501.63 652.81, 1503.07 652.87, 1504.70 653.44 C 1506.34 654.01, 1507.41 653.78, 1508.97 654.61 C 1510.53 655.45, 1511.42 655.82, 1512.49 657.61 C 1513.56 659.41, 1514.29 660.63, 1514.32 663.58 C 1514.35 666.54, 1514.06 668.77, 1512.65 672.38 C 1511.24 675.98, 1509.92 678.29, 1507.27 681.60 C 1504.61 684.91, 1502.55 686.65, 1499.35 688.93 C 1496.15 691.20, 1494.01 691.98, 1491.26 692.97 C 1488.51 693.96, 1487.23 694.06, 1485.61 693.86 C 1483.99 693.66, 1483.64 693.56, 1483.15 691.99 C 1482.65 690.42, 1482.45 689.08, 1483.14 686.00 C 1483.83 682.93, 1484.95 680.40, 1486.60 676.61 C 1488.25 672.83, 1490.08 670.41, 1491.38 667.07 C 1492.68 663.74, 1493.46 661.88, 1493.11 659.93 C 1492.77 657.97, 1491.56 656.85, 1489.66 657.32 C 1487.77 657.79, 1486.65 659.35, 1483.63 662.27 C 1480.62 665.18, 1478.69 668.05, 1474.57 671.88 C 1470.45 675.72, 1467.76 678.04, 1463.04 681.45 C 1458.32 684.85, 1455.51 686.59, 1450.96 688.91 C 1446.41 691.22, 1443.90 692.12, 1440.29 693.01 C 1436.68 693.91, 1435.13 693.74, 1432.91 693.40 C 1430.69 693.06, 1430.24 692.80, 1429.21 691.33 C 1428.17 689.87, 1427.95 688.76, 1427.71 686.09 C 1427.47 683.42, 1427.76 681.34, 1428.01 677.97 C 1428.26 674.61, 1429.20 672.41, 1428.97 669.25 C 1428.73 666.10, 1428.29 664.15, 1426.84 662.19 C 1425.40 660.22, 1424.14 659.24, 1421.73 659.43 C 1419.32 659.62, 1418.02 660.74, 1414.78 663.15 C 1411.55 665.57, 1409.78 667.95, 1405.54 671.49 C 1401.31 675.02, 1398.56 677.41, 1393.63 680.84 C 1388.71 684.27, 1385.65 686.18, 1380.93 688.63 C 1376.20 691.08, 1373.49 691.94, 1370.02 693.09 C 1366.55 694.24, 1365.18 694.29, 1363.57 694.37 C 1361.96 694.46, 1361.93 694.80, 1361.98 693.54 C 1362.03 692.28, 1362.20 691.02, 1363.83 688.08 C 1365.45 685.13, 1366.77 682.62, 1370.09 678.80 C 1373.42 674.98, 1376.01 672.46, 1380.46 668.97 C 1384.91 665.48, 1387.75 663.60, 1392.33 661.34 C 1396.91 659.08, 1399.65 658.62, 1403.36 657.66 C 1407.06 656.70, 1408.55 657.20, 1410.84 656.55 C 1413.14 655.90, 1414.04 655.55, 1414.84 654.41 C 1415.63 653.28, 1415.81 651.99, 1414.81 650.87" style="stroke: black; fill: black;"/><path d="M 1590.55,597.35 C 1590.41 595.99, 1589.61 594.37, 1587.49 593.62 C 1585.36 592.87, 1582.91 592.03, 1579.93 593.60 C 1576.94 595.16, 1575.46 597.01, 1572.58 601.44 C 1569.70 605.87, 1568.23 608.88, 1565.52 615.73 C 1562.81 622.58, 1561.33 627.04, 1559.04 635.67 C 1556.74 644.30, 1555.70 649.48, 1554.05 658.88 C 1552.40 668.27, 1551.78 673.53, 1550.80 682.64 C 1549.82 691.74, 1549.62 696.50, 1549.14 704.40 C 1548.66 712.31, 1548.60 716.23, 1548.42 722.15 C 1548.23 728.06, 1548.05 730.39, 1548.22 733.99 C 1548.39 737.59, 1548.60 738.92, 1549.29 740.15 C 1549.97 741.39, 1550.97 741.38, 1551.64 740.14 C 1552.32 738.91, 1552.51 737.56, 1552.65 733.97 C 1552.79 730.38, 1552.39 728.07, 1552.33 722.19 C 1552.27 716.31, 1552.08 712.41, 1552.36 704.56 C 1552.64 696.71, 1552.81 691.98, 1553.74 682.95 C 1554.67 673.92, 1555.30 668.68, 1557.02 659.41 C 1558.74 650.14, 1559.85 645.00, 1562.35 636.60 C 1564.84 628.21, 1566.48 623.77, 1569.49 617.45 C 1572.49 611.13, 1574.47 608.29, 1577.36 605.02 C 1580.24 601.76, 1582.17 602.07, 1583.92 601.11 C 1585.68 600.16, 1585.27 600.38, 1586.13 600.24 C 1586.98 600.11, 1587.32 601.01, 1588.21 600.43 C 1589.09 599.85, 1590.70 598.71, 1590.55 597.35" style="stroke: black; fill: black;"/><path d="M 1532.58,685.35 C 1533.58 686.28, 1534.41 686.75, 1536.91 686.70 C 1539.41 686.66, 1540.94 685.88, 1545.08 685.14 C 1549.21 684.40, 1551.98 683.85, 1557.59 682.99 C 1563.19 682.12, 1566.67 681.82, 1573.10 680.81 C 1579.52 679.79, 1583.19 679.27, 1589.72 677.91 C 1596.25 676.55, 1599.71 675.75, 1605.76 674.00 C 1611.82 672.25, 1614.87 671.23, 1619.98 669.17 C 1625.10 667.11, 1627.53 666.01, 1631.34 663.68 C 1635.15 661.36, 1637.17 660.32, 1639.02 657.56 C 1640.87 654.79, 1641.15 652.70, 1640.59 649.87 C 1640.04 647.04, 1638.93 645.06, 1636.25 643.41 C 1633.58 641.77, 1631.16 641.34, 1627.22 641.65 C 1623.28 641.95, 1620.75 642.95, 1616.55 644.94 C 1612.34 646.92, 1609.85 648.44, 1606.19 651.55 C 1602.52 654.67, 1600.54 656.65, 1598.23 660.51 C 1595.92 664.37, 1594.85 666.78, 1594.64 670.86 C 1594.43 674.94, 1595.00 677.48, 1597.16 680.92 C 1599.32 684.35, 1601.34 685.99, 1605.43 688.03 C 1609.51 690.06, 1612.23 690.64, 1617.58 691.07 C 1622.93 691.50, 1626.12 691.24, 1632.17 690.18 C 1638.23 689.13, 1641.61 688.04, 1647.86 685.79 C 1654.12 683.55, 1657.55 681.87, 1663.45 678.96 C 1669.35 676.05, 1672.57 673.89, 1677.37 671.25 C 1682.16 668.62, 1684.67 667.34, 1687.42 665.80 C 1690.18 664.25, 1690.63 663.57, 1691.14 663.55 C 1691.66 663.53, 1690.73 663.95, 1690.01 665.68 C 1689.28 667.42, 1688.32 669.27, 1687.53 672.21 C 1686.75 675.14, 1686.04 677.54, 1686.08 680.35 C 1686.13 683.17, 1687.07 684.51, 1687.75 686.30 C 1688.44 688.09, 1688.72 688.65, 1689.51 689.30 C 1690.31 689.94, 1690.81 689.97, 1691.72 689.53 C 1692.63 689.09, 1692.95 688.66, 1694.06 687.09 C 1695.17 685.53, 1696.55 684.46, 1697.27 681.71 C 1697.99 678.95, 1697.76 676.62, 1697.65 673.31 C 1697.55 670.00, 1697.82 667.84, 1696.75 665.15 C 1695.68 662.47, 1694.68 660.81, 1692.30 659.87 C 1689.93 658.94, 1688.36 659.04, 1684.88 660.48 C 1681.40 661.93, 1679.59 664.16, 1674.92 667.09 C 1670.25 670.02, 1667.22 672.19, 1661.52 675.12 C 1655.82 678.05, 1652.45 679.65, 1646.43 681.73 C 1640.42 683.81, 1637.10 684.72, 1631.44 685.51 C 1625.77 686.31, 1622.77 686.28, 1618.12 685.70 C 1613.47 685.13, 1611.29 684.27, 1608.18 682.63 C 1605.08 680.99, 1604.03 679.77, 1602.61 677.50 C 1601.19 675.22, 1600.87 673.99, 1601.08 671.26 C 1601.29 668.52, 1601.81 666.76, 1603.65 663.82 C 1605.50 660.89, 1607.16 659.05, 1610.30 656.59 C 1613.45 654.13, 1615.86 652.89, 1619.39 651.53 C 1622.93 650.17, 1625.18 650.12, 1627.98 649.79 C 1630.77 649.47, 1631.91 649.72, 1633.38 649.91 C 1634.86 650.10, 1635.32 650.01, 1635.35 650.73 C 1635.38 651.45, 1634.96 651.85, 1633.54 653.52 C 1632.13 655.19, 1631.34 656.80, 1628.27 659.08 C 1625.19 661.36, 1622.89 662.74, 1618.15 664.92 C 1613.41 667.09, 1610.42 668.18, 1604.57 669.96 C 1598.71 671.74, 1595.31 672.55, 1588.89 673.82 C 1582.47 675.09, 1578.86 675.56, 1572.48 676.29 C 1566.10 677.03, 1562.64 677.14, 1556.99 677.50 C 1551.33 677.87, 1548.47 677.82, 1544.20 678.13 C 1539.93 678.43, 1538.09 678.26, 1535.63 679.04 C 1533.17 679.83, 1532.52 680.80, 1531.91 682.06 C 1531.30 683.32, 1531.58 684.42, 1532.58 685.35" style="stroke: black; fill: black;"/><path d="M 1705.15,610.14 C 1706.15 611.02, 1706.64 611.86, 1706.71 611.89 C 1706.78 611.92, 1706.24 611.46, 1705.49 610.28 C 1704.75 609.09, 1703.94 607.05, 1702.99 605.98 C 1702.05 604.92, 1701.03 604.65, 1700.78 604.95 C 1700.53 605.25, 1700.85 606.46, 1701.72 607.50 C 1702.60 608.53, 1704.15 609.26, 1705.15 610.14" style="stroke: black; fill: black;"/><path d="M 1863.56,605.43 C 1862.57 606.63, 1862.52 607.91, 1862.10 611.55 C 1861.68 615.18, 1861.95 617.71, 1861.44 623.61 C 1860.93 629.51, 1860.58 633.71, 1859.55 641.03 C 1858.51 648.36, 1857.67 652.85, 1856.26 660.22 C 1854.85 667.60, 1853.92 671.74, 1852.49 677.91 C 1851.07 684.08, 1849.92 686.98, 1849.14 691.05 C 1848.35 695.13, 1848.37 696.76, 1848.57 698.29 C 1848.77 699.82, 1849.83 698.61, 1850.15 698.70 C 1850.47 698.79, 1849.84 698.67, 1850.18 698.74 C 1850.53 698.80, 1851.02 700.36, 1851.88 699.05 C 1852.73 697.74, 1853.51 696.24, 1854.46 692.18 C 1855.40 688.12, 1855.46 685.00, 1856.59 678.75 C 1857.72 672.51, 1858.67 668.37, 1860.12 660.97 C 1861.56 653.56, 1862.52 649.06, 1863.81 641.71 C 1865.09 634.35, 1865.69 630.15, 1866.55 624.20 C 1867.40 618.25, 1868.00 615.70, 1868.09 611.96 C 1868.18 608.23, 1867.92 606.84, 1867.01 605.53 C 1866.10 604.23, 1864.54 604.23, 1863.56 605.43" style="stroke: black; fill: black;"/><path d="M 1863.03,612.85 C 1862.32 613.87, 1861.92 614.46, 1862.28 616.48 C 1862.63 618.49, 1862.90 620.24, 1864.82 622.90 C 1866.74 625.57, 1868.53 627.15, 1871.87 629.78 C 1875.21 632.42, 1877.21 634.18, 1881.54 636.09 C 1885.86 638.01, 1888.37 638.92, 1893.49 639.36 C 1898.61 639.80, 1901.45 639.52, 1907.15 638.30 C 1912.86 637.07, 1915.99 635.89, 1922.01 633.24 C 1928.03 630.60, 1931.29 628.70, 1937.25 625.07 C 1943.21 621.44, 1946.37 619.03, 1951.82 615.10 C 1957.27 611.17, 1960.07 608.77, 1964.49 605.43 C 1968.91 602.10, 1971.37 600.69, 1973.91 598.45 C 1976.46 596.20, 1977.04 594.98, 1977.22 594.21 C 1977.40 593.43, 1975.93 592.92, 1974.81 594.57 C 1973.69 596.22, 1973.21 598.12, 1971.62 602.46 C 1970.03 606.80, 1968.95 610.09, 1966.85 616.27 C 1964.75 622.45, 1963.31 626.38, 1961.12 633.34 C 1958.93 640.31, 1957.56 644.33, 1955.91 651.10 C 1954.26 657.88, 1953.41 661.37, 1952.87 667.20 C 1952.33 673.03, 1952.22 675.75, 1953.20 680.27 C 1954.19 684.78, 1955.10 686.96, 1957.82 689.77 C 1960.54 692.59, 1962.75 693.55, 1966.81 694.33 C 1970.86 695.11, 1973.30 694.73, 1978.10 693.67 C 1982.89 692.61, 1985.58 691.46, 1990.78 689.03 C 1995.98 686.60, 1998.82 684.79, 2004.08 681.52 C 2009.34 678.26, 2012.18 676.16, 2017.07 672.69 C 2021.97 669.22, 2024.46 667.23, 2028.55 664.17 C 2032.65 661.11, 2034.73 659.78, 2037.54 657.40 C 2040.36 655.02, 2041.60 654.14, 2042.63 652.27 C 2043.66 650.40, 2043.43 649.38, 2042.68 648.06 C 2041.94 646.75, 2040.82 646.01, 2038.91 645.68 C 2037.00 645.35, 2035.47 645.33, 2033.15 646.43 C 2030.82 647.52, 2029.62 648.87, 2027.30 651.15 C 2024.97 653.43, 2023.80 655.07, 2021.51 657.84 C 2019.22 660.60, 2017.85 662.06, 2015.87 664.98 C 2013.88 667.91, 2012.61 669.45, 2011.61 672.45 C 2010.61 675.45, 2010.42 677.24, 2010.85 679.99 C 2011.29 682.74, 2011.96 684.26, 2013.79 686.19 C 2015.62 688.13, 2017.12 689.10, 2020.01 689.67 C 2022.89 690.23, 2024.88 690.09, 2028.22 689.01 C 2031.56 687.94, 2033.27 686.50, 2036.71 684.27 C 2040.16 682.04, 2042.04 680.48, 2045.44 677.85 C 2048.83 675.23, 2051.06 673.48, 2053.69 671.14 C 2056.31 668.81, 2057.54 667.53, 2058.55 666.19 C 2059.57 664.84, 2059.11 664.12, 2058.77 664.43 C 2058.44 664.74, 2057.35 665.57, 2056.89 667.75 C 2056.43 669.93, 2056.23 671.95, 2056.48 675.34 C 2056.72 678.73, 2057.08 681.09, 2058.12 684.71 C 2059.15 688.33, 2059.80 690.31, 2061.66 693.43 C 2063.52 696.55, 2064.70 698.06, 2067.42 700.31 C 2070.14 702.56, 2072.11 703.51, 2075.23 704.69 C 2078.35 705.86, 2080.37 706.26, 2083.02 706.19 C 2085.67 706.11, 2087.34 705.36, 2088.50 704.31 C 2089.65 703.26, 2089.58 702.15, 2088.77 700.94 C 2087.97 699.72, 2086.55 699.19, 2084.47 698.25 C 2082.38 697.31, 2080.77 697.12, 2078.36 696.24 C 2075.94 695.37, 2074.32 695.24, 2072.37 693.89 C 2070.43 692.54, 2069.78 691.73, 2068.62 689.50 C 2067.47 687.28, 2067.07 685.74, 2066.60 682.77 C 2066.14 679.80, 2066.50 677.83, 2066.28 674.65 C 2066.06 671.46, 2066.47 669.47, 2065.51 666.84 C 2064.54 664.22, 2063.50 662.79, 2061.46 661.52 C 2059.42 660.25, 2057.87 659.80, 2055.30 660.52 C 2052.72 661.24, 2051.45 662.81, 2048.59 665.13 C 2045.72 667.44, 2044.13 669.63, 2040.97 672.11 C 2037.80 674.59, 2035.87 675.91, 2032.75 677.54 C 2029.63 679.18, 2027.81 679.47, 2025.37 680.28 C 2022.93 681.09, 2021.97 681.31, 2020.56 681.58 C 2019.14 681.85, 2018.79 682.01, 2018.29 681.64 C 2017.80 681.28, 2017.79 680.93, 2018.09 679.74 C 2018.39 678.55, 2018.83 677.67, 2019.79 675.68 C 2020.76 673.69, 2021.27 672.17, 2022.91 669.80 C 2024.55 667.44, 2025.73 665.98, 2027.99 663.85 C 2030.24 661.72, 2031.92 660.85, 2034.20 659.16 C 2036.49 657.47, 2037.91 656.95, 2039.40 655.39 C 2040.89 653.82, 2041.29 652.75, 2041.65 651.32 C 2042.01 649.89, 2041.87 648.86, 2041.21 648.24 C 2040.55 647.62, 2039.92 647.34, 2038.35 648.22 C 2036.77 649.11, 2035.95 650.27, 2033.36 652.66 C 2030.77 655.06, 2029.18 656.96, 2025.39 660.21 C 2021.59 663.46, 2019.12 665.47, 2014.37 668.93 C 2009.62 672.39, 2006.77 674.44, 2001.64 677.52 C 1996.50 680.60, 1993.62 682.24, 1988.68 684.34 C 1983.74 686.45, 1981.09 687.25, 1976.93 688.06 C 1972.76 688.87, 1970.86 688.87, 1967.85 688.41 C 1964.83 687.95, 1963.79 687.61, 1961.83 685.75 C 1959.87 683.89, 1958.96 682.77, 1958.03 679.13 C 1957.10 675.49, 1956.82 672.96, 1957.17 667.54 C 1957.53 662.13, 1958.22 658.63, 1959.81 652.05 C 1961.39 645.47, 1962.74 641.46, 1965.10 634.66 C 1967.47 627.87, 1969.14 624.06, 1971.63 618.07 C 1974.13 612.09, 1975.83 609.18, 1977.59 604.73 C 1979.34 600.28, 1980.58 598.48, 1980.42 595.81 C 1980.26 593.15, 1978.79 591.83, 1976.76 591.41 C 1974.73 591.00, 1973.31 591.66, 1970.27 593.74 C 1967.23 595.82, 1965.73 598.19, 1961.55 601.79 C 1957.37 605.40, 1954.66 607.82, 1949.38 611.79 C 1944.10 615.75, 1940.97 618.10, 1935.15 621.60 C 1929.34 625.10, 1926.10 626.88, 1920.32 629.29 C 1914.53 631.69, 1911.47 632.70, 1906.23 633.64 C 1900.99 634.58, 1898.46 634.64, 1894.10 634.00 C 1889.74 633.36, 1887.77 632.44, 1884.42 630.44 C 1881.07 628.44, 1879.63 626.70, 1877.36 624.00 C 1875.09 621.31, 1874.73 619.27, 1873.09 616.97 C 1871.44 614.67, 1870.60 613.62, 1869.14 612.50 C 1867.69 611.37, 1867.02 611.28, 1865.80 611.34 C 1864.57 611.41, 1863.73 611.82, 1863.03 612.85" style="stroke: black; fill: black;"/></svg>